<svg version="1" xmlns="http://www.w3.org/2000/svg" width="256pt" height="256pt" viewBox="0 0 256.000000 256.000000"><path d="M67.2 21.1c-13.2 2.2-18.8 8.2-26.5 28-3.1 7.9-8.4 21.5-11.7 30.1-4.1 10.4-6.6 15.8-7.6 15.8-5.3 0-15 8.6-18.6 16.5-2.3 4.9-2.3 5.8-2.6 43.2l-.3 38.2 10.3.3 10.3.3.5 15.1c.5 14.2.6 15.3 3.2 19.1 4.9 7.4 15.8 10.4 23.6 6.4 9.1-4.7 11.2-9.8 11.2-27.6v-13.5h138v12.2c0 6.8.5 14.1 1.1 16.3 3.5 12.9 18.4 18.5 29.1 10.9 6.9-4.9 8.2-8.7 8.6-25.2l.4-14.2h19.8v-37.5c0-35.2-.1-37.7-2-42.9-2.6-6.8-8.3-12.8-15.7-16.4l-5.6-2.7-11.1-28.6c-6.1-15.8-12.3-30.5-13.8-32.7-3.4-5.1-10.4-9.2-18.2-10.9-7.2-1.5-113.6-1.7-122.4-.2zm123.7 22.6c1.9 2 5.2 9.4 11.1 25.3 4.5 12.4 8.5 23.1 8.7 23.7.4 1-16.4 1.3-82.1 1.3-55.4 0-82.6-.3-82.6-1 0-1.3 14.6-41.2 16.7-45.8 3-6.3.9-6.1 66.1-6.2h59.4l2.7 2.7zm-141.2 74.4c5.3 3.3 7.8 8.4 7.7 15.6 0 5.4-.5 6.8-3 9.9-7.7 9.6-19.7 9.9-27.2.8-6-7.2-5.2-17.5 1.9-24.4 2.2-2.1 5.2-4.1 6.7-4.3 4.5-.8 10.4.3 13.9 2.4zm176.2.8c14.3 11.2 5.7 33.9-12 31.8-9.2-1.1-15.2-7.9-15.2-17.2 0-8.5 5.2-15.7 12.7-17.6 4.9-1.2 10.8 0 14.5 3z"/></svg>