<svg xmlns="http://www.w3.org/2000/svg" width="305.362" height="63.6"><defs><clipPath id="a"><path d="M0 508.801v-508.801h2442.94v508.801h-2442.94z"/></clipPath></defs><g clip-path="url(#a)" fill="#615e5e"><path d="M19.547 0c-11.487 0-19.547 5.483-19.547 20.744v22.113c0 15.257 8.06 20.743 19.547 20.743 11.489 0 19.544-5.486 19.544-20.743v-6.975h-11.834v8.517c0 6.855-2.993 8.748-7.711 8.748-4.721 0-7.709-1.892-7.709-8.748v-25.202c0-6.86 2.988-8.744 7.709-8.744 4.718 0 7.711 1.883 7.711 8.744v1.715h11.834v-.169c0-15.26-8.056-20.744-19.544-20.744"/><path d="M44.248 62.743h11.831v-61.885l-11.831 10.553v51.332"/><path d="M117.4 25.804l-10.367-24.945h-46.371v10.458h10.526v51.427h11.831v-51.427h16.207l12.092 26.401v25.026h11.828v-25.026l16.884-36.859h-12.6l-10.029 24.945"/><path d="M178.792 20.998c.223-14.313-6.945-20.998-19.039-20.998-11.482 0-19.531 5.488-19.531 20.744v22.113c0 15.256 8.351 20.19 19.834 20.19 14.137 0 18.736-9.055 18.736-19.273v-16.453h-19.704v9.773h8.32v7.476c0 5.315-3.189 8.577-7.655 8.577-4.71 0-7.71-1.895-7.71-8.748v-25.202c0-6.86 3-8.744 7.71-8.744 4.293 0 7.758 2.91 7.21 10.544h11.829"/><path d="M201.697 25.573h-6.096v-14.946h6.096c5.228 0 8.391 1.627 8.391 7.629 0 5.998-3.164 7.317-8.391 7.317zm20.225-7.141c0-11.666-6.772-17.573-20.999-17.573h-17.15v61.885h11.828v-27.4h5.662l10.29 27.4h12.684l-11.659-29.805c6.603-2.478 9.344-6.799 9.344-14.507"/><path d="M229.192 62.743h11.829v-61.885l-11.829 10.553v51.332"/><path d="M272.939 39.943c0 9.255-3.77 12.344-10.289 12.344h-4.109v-40.971h4.109c7.371 0 10.289 3.595 10.289 12.343v16.284zm-9.771-39.084h-16.457v61.885h16.457c13.543 0 21.086-5.824 21.604-21.426v-19.029c-.517-15.604-8.061-21.43-21.604-21.43"/><path d="M297.873 8.773h-.791v-2.167h.669c1.075 0 1.58.324 1.58 1.113 0 .71-.486 1.054-1.458 1.054zm3.748-1.215c0-1.52-1.177-2.35-3.506-2.35h-3.259v8.102h2.226v-3.22h.65l1.518 3.22h2.451l-1.804-3.564c1.094-.325 1.724-1.135 1.724-2.188"/><path d="M302.248 13.716c-1.175 1.135-2.695 1.742-4.275 1.742-1.621 0-3.14-.648-4.295-1.843-1.133-1.154-1.721-2.614-1.721-4.193 0-1.62.627-3.159 1.824-4.355 1.134-1.113 2.571-1.702 4.215-1.702 1.66 0 3.159.629 4.332 1.824 1.114 1.135 1.702 2.614 1.702 4.233 0 1.662-.627 3.181-1.782 4.295zm1.052-9.46c-1.416-1.459-3.281-2.228-5.327-2.228-1.985 0-3.748.729-5.125 2.085-1.458 1.44-2.249 3.342-2.249 5.308 0 1.924.75 3.728 2.127 5.146 1.417 1.458 3.261 2.249 5.246 2.249 1.904 0 3.748-.75 5.207-2.147 1.416-1.358 2.188-3.201 2.188-5.247 0-1.965-.71-3.788-2.067-5.165"/></g></svg>