<svg xmlns="http://www.w3.org/2000/svg" width="850.3" height="195.975"><defs><clipPath id="a"><path d="M0 0h6802v1567.79h-6802v-1567.79z"/></clipPath></defs><g clip-path="url(#a)" fill="#77caf2"><path d="M371.938.368l.639-.366-.6.076-.039.29"/><path d="M91.618 146.11s-11.518 9.553-32.389 9.553c-38.884 0-59.229-27.895-59.229-66.589 0-41.208 22.14-67.133 58.857-67.133 19.612 0 27.535 5.566 27.535 5.566v19.639s-9.18-7.394-25.388-7.394c-22.12 0-38.511 15.114-38.511 49.669 0 30.784 13.686 47.698 38.511 47.698 18.923 0 30.614-10.261 30.614-10.261v19.252"/><path d="M103.478 67.844h19.985v63.33c0 5.586 2.345 7.936 7.21 7.936 11.335 0 19.429-18.538 19.429-18.538v20.326s-8.454 14.765-25.375 14.765c-14.393 0-21.249-8.817-21.249-22.493v-65.326zm9.926-32.407c7.368 0 12.05 4.675 12.05 12.429 0 7.916-4.682 12.756-12.05 12.756-7.393 0-12.056-5.756-12.056-12.756 0-7.754 4.663-12.429 12.056-12.429"/><path d="M140.921 114.26c0-41.033 12.074-73.245 12.074-73.245h19.79s-3.601 11.873-6.825 26.829h28.049v15.108h-30.765c-1.441 9.717-2.337 20.515-2.337 31.125 0 19.094 5.926 23.41 13.85 23.41 18.191 0 31.505-22.5 31.505-22.5v23.58s-11.696 17.096-33.294 17.096c-22.505 0-32.046-16.01-32.046-41.403"/><path d="M248.563 152.24c-16.378 3.056-28.616 8.447-28.616 19.623 0 6.478 3.601 8.998 8.985 8.998 9.738 0 16.567-10.425 19.631-28.621zm-47.331 20.332c0-11.69 7.014-19.6 17.085-25.002-14.04-6.129-21.23-19.803-21.23-39.061 0-24.655 6.824-40.666 6.824-40.666h20.181s-6.666 14.563-6.666 39.409c0 20.881 10.066 30.397 23.391 30.397 3.235 0 6.489-.164 9.364-.708.177-3.425.354-7.014.354-10.805 0-34.19-10.431-58.294-10.431-58.294h20.161s9.523 21.42 9.523 57.77c0 1.788-.176 3.411-.176 5.03 13.85-7.021 21.609-16.916 21.609-16.916v18.716s-7.759 8.277-22.695 13.869c-4.121 30.772-17.813 49.663-40.838 49.663-16.921 0-26.455-8.813-26.455-23.402"/><path d="M345.558 89.421s-9.521-8.101-23.195-8.101c-7.02 0-10.634 2.717-10.634 7.943 0 15.65 42.125 3.57 42.125 37.064 0 17.989-13.501 29.335-35.642 29.335-23.581 0-35.814-13.5-35.814-30.946 0-7.032 1.972-10.988 1.972-10.988h18.898s-1.434 3.066-1.434 8.802c0 10.817 6.294 17.654 16.926 17.654 9.162 0 15.469-4.328 15.469-12.416 0-19.795-43.188-6.489-43.188-38.347 0-13.477 10.079-23.928 30.595-23.928 15.126 0 23.921 4.139 23.921 4.139v19.79"/><path d="M379.058 113.906c17.451-2.344 29.674-10.798 29.674-23.031 0-7.021-3.95-10.275-9.518-10.275-10.992 0-20.156 10.976-20.156 30.961v2.344zm21.048 41.757c-26.089 0-40.495-18.013-40.495-44.101 0-25.913 15.651-46.069 39.966-46.069 17.444 0 26.644 10.622 26.644 24.839 0 23.037-22.324 33.828-43.756 37.436 3.791 7.021 10.988 9.882 20.164 9.882 23.219 0 37.979-23.39 38.706-24.453v23.563s-15.488 18.902-41.229 18.902"/><path d="M487.584 119.845v-35.106c-2.874-.537-5.75-.884-9.004-.884-14.398 0-25.74 8.814-25.74 32.205 0 16.384 6.673 22.867 16.376 22.867 11.519 0 18.02-7.563 18.367-19.081zm-8.643-54.353c21.047 0 28.433 7.734 28.433 7.734v57.947c0 5.769 2.895 7.936 7.19 7.936 11.355 0 19.455-18.538 19.455-18.538v20.326s-8.276 14.765-25.38 14.765c-9.18 0-15.12-3.601-18.172-9.886-3.804 4.663-10.446 9.886-22.145 9.886-22.141 0-35.083-16.01-35.083-39.242 0-28.257 17.086-50.928 45.703-50.928"/><path d="M579.385 85.283s-4.334-1.081-8.825-1.081c-15.848 0-23.038 15.487-23.038 32.768v36.723h-19.985v-85.849h19.985v13.667s7.366-16.018 24.451-16.018c3.805 0 7.411.715 7.411.715v19.075"/><path d="M594.241 110.67c0 19.259 9.554 27.896 23.054 27.896 22.861 0 33.66-25.369 33.66-25.369v24.289s-11.328 18.176-36.009 18.176c-25.913 0-40.483-18.902-40.483-44.993 0-25.931 15.283-45 40.134-45 16.372 0 22.503 4.322 22.503 4.322v21.23s-5.756-8.448-21.063-8.448c-11.901 0-21.796 8.265-21.796 27.895"/><path d="M667.689 76.469c7.209-8.821 14.949-18.899 14.949-33.286 0-4.681-1.448-6.685-3.95-6.685-5.404 0-9.92 11.531-10.999 39.971zm31.481 20.345c0-8.826-4.846-12.776-10.79-12.776-12.953 0-20.515 15.101-20.87 25.015v44.64h-19.614v-63.911c0-44.28 7.912-68.935 31.145-68.935 12.226 0 19.961 8.107 19.961 21.42 0 9.004-2.884 17.648-7.192 25.381 18.166 0 27.354 10.799 27.354 27.366v36.161c0 5.586 2.514 7.936 7.189 7.936 11.165 0 19.456-18.538 19.456-18.538v20.326s-8.479 14.765-25.559 14.765c-14.4 0-21.08-8.817-21.08-22.493v-36.356"/><path d="M782.497 98.873c-22.309-5.914-35.634-28.78-29.726-51.115 5.916-22.331 28.814-35.624 51.14-29.723 22.313 5.907 35.633 28.8 29.712 51.135-5.904 22.317-28.801 35.624-51.126 29.703zm10.694-97.507c-31.524 0-57.087 25.552-57.087 57.095 0 31.534 25.564 57.124 57.087 57.124 31.555 0 57.112-25.59 57.112-57.124 0-31.543-25.558-57.095-57.112-57.095"/><path d="M793.191 32.404c-.884 0-1.758.037-2.621.125l-.147 16.815c-.044 2.439-1.75 3.411-3.86 2.172l-14.375-8.454c-3.171 4.316-5.049 9.635-5.049 15.393 0 14.406 11.665 26.076 26.052 26.076 14.419 0 26.089-11.67 26.089-26.076 0-14.394-11.67-26.051-26.089-26.051"/></g></svg>